# xmcd
#
# Track frame offsets: 
#        150
#        10462
#        37932
#        52090
#        64785
#        89822
#        103040
#        116560
#        129167
#        145262
#        161195
#        187397
#        201460
#
# Disc length: 2835 seconds
#
# Revision: 4
# Processed by: cddbd v1.5.2PL0 Copyright (c) Steve Scherf et al.
# Submitted via: ExactAudioCopy v0.95b4
#
DISCID=c80b110d
DTITLE=The Birthday Party - Junkyard
DYEAR=1982
DGENRE=Post Punk
TTITLE0=Blast Off
TTITLE1=She's Hit
TTITLE2=Dead Joe
TTITLE3=The Dim Locator
TTITLE4=Hamlet (Pow, Pow, Pow)
TTITLE5=Several Sins
TTITLE6=Big-Jesus-Trash-Can
TTITLE7=Kiss Me Black
TTITLE8=6" Gold Blade
TTITLE9=Kewpie Doll
TTITLE10=Junkyard
TTITLE11=Dead Joe (2nd version)
TTITLE12=Release the Bats
EXTD=
EXTT0=
EXTT1=
EXTT2=
EXTT3=
EXTT4=
EXTT5=
EXTT6=
EXTT7=
EXTT8=
EXTT9=
EXTT10=
EXTT11=
EXTT12=
PLAYORDER=
